,
.   http://www.scenetime.com/signup.php  ---&gt;  Hottest scene tracker on the net !!!  

    Join Now   http://www.scenetime.com/signup.php

    seed back for speed


 



...................................NFO:.................................................[pre]
oooooo     oooo  o8o   .oooooo..o ooooo     ooo       .o.       ooooo         o8o   .oooooo..o oooooooooooo
`888.     .8'   `"'  d8P'    `Y8 `888'     `8'      .888.      `888'         `"'  d8P'    `Y8 `888'     `8
 `888.   .8'   oooo  Y88bo.       888       8      .8"888.      888         oooo  Y88bo.       888        
  `888. .8'    `888   `"Y8888o.   888       8     .8' `888.     888         `888   `"Y8888o.   888oooo8    
   `888.8'      888       `"Y88b  888       8    .88ooo8888.    888          888       `"Y88b  888    "    
    `888'       888  oo     .d8P  `88.    .8'   .8'     `888.   888       o  888  oo     .d8P  888       o
     `8'       o888o 8""88888P'     `YbodP'    o88o     o8888o o888ooooood8 o888o 8""88888P'  o888ooooood8





Title: Tony Roberts Wired 2010 VODRiP XviD - VISUALiSE
Format: Xvid
Language: English
Subtitles: No
Imdb: http://www.imdb.com/title/tt1611184/

Plot:
Comedian Tony Roberts showcases his hilarious and refreshingly 
energetic comedy in his first stand-up comedy special. 
The Detroit native draws from his own experiences to bring the 
house down with laughter. Filmed in Hollywood, CA in front of a 
live audience, the raucously funny comic will keep you in laughter.

Sources:
Video: Netflix Ripper - Many Thanks ;) :P
Audio: Netflix Ripper - Many Thanks ;) :D

Release Notes:
VISUALiSE Bringing you.........................
Tony Roberts Wired 2010 VODRiP XviD - VISUALiSE
Couldnt really see this about so thought we would
put it out there for all to share ;) :)
as some parts are funny as hell :P :P

Special thanks to the Netflix ripper :P :D :P 

Done our normal thing on this ran some filters and
a little sharpen then muxed the AC3 audio back 
to our encode :D :D

enjoy. :P

Info:

Video
ID                               : 0
Format                           : MPEG-4 Visual
Format profile                   : Advanced Simple@L5
Format settings, BVOP            : 2
Format settings, QPel            : No
Format settings, GMC             : No warppoints
Format settings, Matrix          : Default (H.263)
Codec ID                         : XVID
Codec ID/Hint                    : XviD
Duration                         : 59mn 36s
Bit rate                         : 1 499 Kbps
Width                            : 720 pixels
Height                           : 404 pixels
Display aspect ratio             : 16:9
Frame rate                       : 25.000 fps
Color space                      : YUV
Chroma subsampling               : 4:2:0
Bit depth                        : 8 bits
Scan type                        : Progressive
Compression mode                 : Lossy
Bits/(Pixel*Frame)               : 0.206
Stream size                      : 639 MiB (92%)

Audio
ID                               : 1
Format                           : AC-3
Format/Info                      : Audio Coding 3
Mode extension                   : CM (complete main)
Codec ID                         : 2000
Duration                         : 59mn 36s
Bit rate mode                    : Constant
Bit rate                         : 128 Kbps
Channel(s)                       : 2 channels
Channel positions                : Front: L R
Sampling rate                    : 44.1 KHz
Bit depth                        : 16 bits
Compression mode                 : Lossy
Stream size                      : 54.6 MiB (8%)
Alignment                        : Aligned on interleaves
Interleave, duration             : 35 ms (0.87 video frame)

Screens:
[IMG]http://i.imgur.com/LZnDG.png[/IMG]
[IMG]http://i.imgur.com/Gk9OX.png[/IMG]
[IMG]http://i.imgur.com/CrZcW.png[/IMG]
[IMG]http://i.imgur.com/HND2c.png[/IMG]
[IMG]http://i.imgur.com/2swk3.png[/IMG]
[IMG]http://i.imgur.com/QFM5H.png[/IMG]


Greetz
The Select Few .... YOU Know Who YOU Are ;)
The Rest Of YOU ....................SUCK :P
[/pre]